<svg width="40" height="31" viewBox="0 0 40 31" fill="none" xmlns="http://www.w3.org/2000/svg">
<path d="M17.985 12.5277C13.9661 7.62134 9.71542 9.04762 9.12178 15.0177C8.66527 19.6088 18.1969 17.5122 17.7636 21.8705C17.5934 23.5819 16.8463 25.0447 15.5076 26.1413C14.8772 26.6576 14.1801 27.4425 13.4314 27.7662C13.2702 27.8358 10.3431 28.0677 10.2644 28.0131C8.81278 27.0067 7.81535 27.5652 6.45737 25.9073C5.13802 24.2966 4.82856 23.3043 6.56638 21.8809" stroke="#39423E" stroke-width="2" stroke-linecap="round"/>
<path d="M22.1523 1.49902C23.2285 10.2963 23.2593 18.3636 24.5032 26.8305" stroke="#39423E" stroke-width="2" stroke-linecap="round"/>
<path d="M28.9463 12.2891C27.1998 14.0495 24.9727 17.5463 24.9983 19.7629C25.0073 20.5481 28.4347 22.4606 29.0059 22.9917C31.2077 25.0387 32.9396 27.8163 35.4838 29.4212" stroke="#39423E" stroke-width="2" stroke-linecap="round"/>
</svg>
