<svg width="111" height="72" viewBox="0 0 111 72" fill="none" xmlns="http://www.w3.org/2000/svg">
<path d="M39.1757 14.9429L27.4381 10.5292L19.6682 12.9536L16.8215 15.4827L16.2372 19.0755L16.3182 22.4287L18.4218 26.1803L22.3084 29.6652L28.4304 33.0961L34.3126 35.8618L39.1042 39.7722L42.3525 44.6146L42.2207 48.4202L40.5187 52.04L36.7671 54.1437L29.8751 55.8758L23.4086 56.7029L17.3676 56.6251L11.2995 55.4296L8.77042 52.583" stroke="black" stroke-width="3"/>
<path d="M49.5606 1L50.3958 10.8895L50.0188 19.8955L49.8267 27.7989L49.1211 34.7092L49.8879 39.5991M49.8879 39.5991L50.107 40.9963L51.093 47.2834L52.2639 52.4679L49.8879 39.5991ZM59.5313 28.0663L51.5796 38.976L58.3391 43.284L62.7837 46.5236L67.2284 49.7632L71.269 52.7083L76.2273 56.9409L83.24 65.1459" stroke="black" stroke-width="3"/>
<path d="M70.5445 32.4202L71.784 37.6607L71.5857 40.8561L71.7964 43.764L72.0518 48.4741" stroke="black" stroke-width="3"/>
<path d="M67.5796 24.7254L69.7908 24.3932L70.1999 24.1056L70.8965 24.2271L71.4716 25.0452L72.0467 25.8632L71.5162 26.8474L70.6982 27.4225L68.8959 27.4671L67.6242 26.5276L67.5796 24.7254Z" stroke="black" stroke-width="3"/>
<path d="M81.7613 7L83.6752 14.1824L83.6029 18.483L83.9423 22.4998L83.0466 27.3678L82.1787 34.0384L81.4388 40.0136L81.8061 45.8329L81.8617 49.4381" stroke="black" stroke-width="3"/>
<path d="M89.539 7.71207L91.4529 14.8945L91.3806 19.195L91.72 23.2119L90.8243 28.0799L89.9565 34.7505L89.2166 40.7256L89.5838 46.545L89.6395 50.1501" stroke="black" stroke-width="3"/>
<path d="M109.395 34.7445L104.465 32.3677L101.339 33.0627L100.041 35.692L99.9789 38.7258L101.806 40.66L103.937 42.9797L105.15 44.522L105.718 47.1893L105.967 50.2294L104.692 51.721L102.492 52.8143L100.315 52.7699L97.508 53.0921L94.3977 53.0287L91.5985 52.9716L89.1103 52.9209L87.5551 52.8892L86 52.8575" stroke="black" stroke-width="3"/>
</svg>
