<svg width="101" height="86" viewBox="0 0 101 86" fill="none" xmlns="http://www.w3.org/2000/svg">
<path d="M21 36L8.5 37L2.5 42.5L1 46L2 49.5L3.5 52.5L7 55L12 56.5L19 57H25.5L31.5 58.5L36.5 61.5L38 65V69L35.5 72.5L30 77L24.5 80.5L19 83L13 84.5L9.5 83" stroke="black"/>
<path d="M20 24L26.5 31.5L31.5 39L36 45.5L39.5 51.5L43 55M43 55L44 56L48.5 60.5L52.5 64L43 55ZM44 40V53.5L52 53H57.5H63H68L74.5 53.5L85 56" stroke="black"/>
<path d="M59 38L64 40L66.5 42L69 43.5L73 46" stroke="black"/>
<path d="M51 36L52 34V33.5L52.5 33H53.5H54.5L55 34V35L54 36.5L52.5 37L51 36Z" stroke="black"/>
<path d="M46 15L53 17.5L56.5 20L60 22L63.5 25.5L68.5 30L73 34L78 37L81 39" stroke="black"/>
<path d="M51 9L58 11.5L61.5 14L65 16L68.5 19.5L73.5 24L78 28L83 31L86 33" stroke="black"/>
<path d="M76 1L73 9L74 14L77.5 16H81.5L84 13L87 9.5L89 7.5L92.5 6.5L96.5 6L98.5 8L100 11.5V15L100.5 19.5V24.5V29V33V35.5V38" stroke="black"/>
</svg>
